<svg width="937" height="244" viewBox="0 0 937 244" fill="none" xmlns="http://www.w3.org/2000/svg">
<path d="M286.551 0C308.649 0 327.957 5.03453 344.475 15.1036C360.993 25.1727 373.828 39.1575 382.979 57.058C392.131 75.1823 396.707 96.2155 396.707 120.157C396.707 144.323 392.02 165.58 382.645 183.928C373.046 202.5 359.542 216.932 342.131 227.225C324.497 237.742 303.627 243 279.52 243C252.064 243 229.296 236.399 211.216 223.198C193.136 209.996 181.417 191.76 176.06 168.489H223.939C227.511 179.453 233.984 187.956 243.359 193.997C252.734 200.262 264.787 203.395 279.52 203.395C302.957 203.395 321.037 195.899 333.761 180.907C346.484 166.139 352.845 145.778 352.845 119.822C352.845 93.866 346.595 73.7279 334.095 59.4075C321.372 45.3108 304.185 38.2624 282.533 38.2624C261.328 38.2624 245.368 43.9682 234.653 55.3798C223.716 67.0152 217.131 82.2307 214.899 101.026H274.162V133.247H171.707V4.02762H211.216L214.564 34.9061C222.153 23.7182 231.64 15.1036 243.024 9.06215C254.408 3.02072 268.917 0 286.551 0Z" fill="#00D19F"/>
<path d="M552.457 243.253C529.576 243.253 508.984 238.105 490.679 227.809C472.661 217.227 458.36 202.926 447.778 184.908C437.482 166.603 432.333 146.154 432.333 123.559C432.333 100.678 437.482 80.2288 447.778 62.2103C458.36 43.9057 472.661 29.6053 490.679 19.309C508.984 8.72668 529.576 3.43555 552.457 3.43555C575.338 3.43555 595.787 8.72668 613.806 19.309C631.824 29.6053 645.982 43.9057 656.278 62.2103C666.86 80.2288 672.151 100.678 672.151 123.559L661.426 140.72C661.426 160.168 656.564 177.615 646.84 193.059C637.401 208.503 624.531 220.802 608.229 229.954C591.926 238.82 573.336 243.253 552.457 243.253ZM552.457 219.229C570.475 219.229 586.492 215.082 600.506 206.787C614.807 198.207 625.961 186.767 633.969 172.466C642.264 157.88 646.411 141.578 646.411 123.559C646.411 105.254 642.264 88.952 633.969 74.6516C625.961 60.0652 614.807 48.6249 600.506 40.3306C586.492 31.7504 570.475 27.4602 552.457 27.4602C534.724 27.4602 518.708 31.7504 504.408 40.3306C490.107 48.6249 478.81 60.0652 470.516 74.6516C462.221 88.952 458.074 105.254 458.074 123.559C458.074 141.578 462.221 157.88 470.516 172.466C478.81 186.767 490.107 198.207 504.408 206.787C518.708 215.082 534.724 219.229 552.457 219.229ZM659.281 240.679C655.563 240.679 652.417 239.535 649.843 237.247C647.555 234.673 646.411 231.527 646.411 227.809V149.3L654.562 123.559H672.151V227.809C672.151 231.527 671.007 234.673 668.719 237.247C666.431 239.535 663.285 240.679 659.281 240.679Z" fill="#BFBFBF"/>
<path d="M8.58026 99.9633C10.2963 81.6588 15.3015 65.4993 23.5957 51.4849C31.8899 37.1845 42.6152 26.0302 55.7716 18.0219C68.928 10.0137 83.5144 6.00958 99.5309 6.00958C110.399 6.00958 118.836 7.29662 124.843 9.8707C130.849 12.4448 133.137 17.0209 131.707 23.5991C130.849 27.8892 128.847 30.4633 125.701 31.3214C122.555 32.1794 118.693 32.3223 114.117 31.7503C109.827 30.8923 104.965 30.4633 99.5309 30.4633C85.2305 30.4633 72.5031 33.4664 61.3488 39.4725C50.1945 45.4787 41.4712 53.773 35.179 64.3553C28.8868 74.6516 25.7408 86.5209 25.7408 99.9633H8.58026ZM12.8704 243.253C9.15225 243.253 6.0062 242.109 3.43213 239.821C1.14406 237.247 0 234.101 0 230.383V21.454C0 17.4499 1.14406 14.3038 3.43213 12.0157C6.0062 9.72768 9.15225 8.58365 12.8704 8.58365C16.8745 8.58365 20.0206 9.72768 22.3087 12.0157C24.5967 14.3038 25.7408 17.4499 25.7408 21.454V230.383C25.7408 234.101 24.5967 237.247 22.3087 239.821C20.0206 242.109 16.8745 243.253 12.8704 243.253Z" fill="#BFBFBF"/>
<path d="M817.013 243.25C794.132 243.25 773.54 238.102 755.235 227.806C737.217 217.223 722.917 202.923 712.334 184.904C702.038 166.6 696.89 146.15 696.89 123.556C696.89 100.675 702.038 80.2254 712.334 62.2068C722.917 43.9023 737.217 29.6019 755.235 19.3056C773.54 8.72327 794.132 3.43213 817.013 3.43213C839.893 3.43213 860.343 8.72327 878.362 19.3056C896.38 29.6019 910.537 43.9023 920.833 62.2068C931.416 80.2254 936.707 100.675 936.707 123.556L925.982 140.716C925.982 160.165 921.12 177.611 911.395 193.056C901.957 208.5 889.087 220.798 872.784 229.951C856.482 238.817 837.891 243.25 817.013 243.25ZM817.013 219.225C835.031 219.225 851.048 215.078 865.062 206.784C879.362 198.204 890.517 186.763 898.525 172.463C906.819 157.877 910.966 141.574 910.966 123.556C910.966 105.251 906.819 88.9486 898.525 74.6482C890.517 60.0618 879.362 48.6214 865.062 40.3272C851.048 31.747 835.031 27.4568 817.013 27.4568C799.28 27.4568 783.264 31.747 768.964 40.3272C754.663 48.6214 743.366 60.0618 735.072 74.6482C726.778 88.9486 722.631 105.251 722.631 123.556C722.631 141.574 726.778 157.877 735.072 172.463C743.366 186.763 754.663 198.204 768.964 206.784C783.264 215.078 799.28 219.225 817.013 219.225ZM923.837 240.676C920.119 240.676 916.973 239.532 914.398 237.244C912.11 234.67 910.966 231.524 910.966 227.806V149.296L919.117 123.556H936.707V227.806C936.707 231.524 935.563 234.67 933.275 237.244C930.987 239.532 927.841 240.676 923.837 240.676Z" fill="#BFBFBF"/>
</svg>
