<svg width="226" height="243" viewBox="0 0 226 243" fill="none" xmlns="http://www.w3.org/2000/svg">
<path d="M115.551 0C137.649 0 156.957 5.03453 173.475 15.1036C189.993 25.1727 202.828 39.1575 211.979 57.058C221.131 75.1823 225.707 96.2155 225.707 120.157C225.707 144.323 221.02 165.58 211.645 183.928C202.046 202.5 188.542 216.932 171.131 227.225C153.497 237.742 132.627 243 108.52 243C81.0642 243 58.2963 236.399 40.2159 223.198C22.1356 209.996 10.4168 191.76 5.05969 168.489H52.9392C56.5106 179.453 62.9838 187.956 72.3588 193.997C81.7338 200.262 93.7874 203.395 108.52 203.395C131.957 203.395 150.037 195.899 162.761 180.907C175.484 166.139 181.845 145.778 181.845 119.822C181.845 93.866 175.595 73.7279 163.095 59.4075C150.372 45.3108 133.185 38.2624 111.533 38.2624C90.3276 38.2624 74.3677 43.9682 63.6534 55.3798C52.716 67.0152 46.1311 82.2307 43.899 101.026H103.162V133.247H0.707031V4.02762H40.2159L43.5642 34.9061C51.1535 23.7182 60.6401 15.1036 72.024 9.06215C83.4079 3.02072 97.9169 0 115.551 0Z" fill="#00D19F"/>
</svg>
