<svg width="516" height="120" viewBox="0 0 516 120" fill="none" xmlns="http://www.w3.org/2000/svg">
<path d="M60 60L120 120H60V60Z" fill="#F5A604"/>
<rect y="60" width="60" height="60" fill="#58D9CD"/>
<path d="M60 0H90C106.569 0 120 13.4315 120 30V30C120 46.5685 106.569 60 90 60H60V0Z" fill="#00A3CE"/>
<rect width="60" height="60" fill="#58D9CD"/>
<rect x="193" y="60" width="60" height="60" fill="#58D9CD"/>
<path d="M133 60V60C133 26.8629 159.863 -1.17422e-06 193 -2.62268e-06V-2.62268e-06L193 60L133 60Z" fill="#FF6665"/>
<path d="M133 60V60C133 93.1371 159.863 120 193 120V120L193 60L133 60Z" fill="#FF6665"/>
<path d="M396 120L456 60H396V120Z" fill="#F5A604"/>
<path d="M516 120L456 60H516V120Z" fill="#F5A604"/>
<path d="M456 0L516 60H456V0Z" fill="#F5A604"/>
<path d="M456 0L396 60H456V0Z" fill="#F5A604"/>
<path d="M263 120L323 60H263V120Z" fill="#F5A604"/>
<path d="M383 120L323 60H383V120Z" fill="#F5A604"/>
<path d="M323 0L383 60H323V0Z" fill="#F5A604"/>
<path d="M323 0L263 60H323V0Z" fill="#F5A604"/>
</svg>
