<svg width="516" height="171" viewBox="0 0 516 171" fill="none" xmlns="http://www.w3.org/2000/svg">
<path d="M20.4171 163C20.0771 163 19.7971 162.89 19.5771 162.67C19.3571 162.45 19.2471 162.17 19.2471 161.83V140.74C19.2471 140.4 19.3571 140.12 19.5771 139.9C19.7971 139.68 20.0771 139.57 20.4171 139.57H26.0271C27.4871 139.57 28.7871 139.88 29.9271 140.5C31.0671 141.1 31.9571 141.95 32.5971 143.05C33.2571 144.13 33.5871 145.38 33.5871 146.8C33.5871 148.16 33.2571 149.37 32.5971 150.43C31.9571 151.49 31.0671 152.32 29.9271 152.92C28.7871 153.52 27.4871 153.82 26.0271 153.82H21.5871V161.83C21.5871 162.17 21.4771 162.45 21.2571 162.67C21.0371 162.89 20.7571 163 20.4171 163ZM32.9571 163C32.6971 163 32.4871 162.95 32.3271 162.85C32.1871 162.75 32.0571 162.6 31.9371 162.4L26.1771 153.22L28.5171 152.62L33.8871 161.2C34.1871 161.68 34.2371 162.1 34.0371 162.46C33.8571 162.82 33.4971 163 32.9571 163ZM21.5871 151.57H26.0271C27.0471 151.57 27.9471 151.37 28.7271 150.97C29.5271 150.55 30.1571 149.98 30.6171 149.26C31.0771 148.54 31.3071 147.72 31.3071 146.8C31.3071 145.82 31.0771 144.96 30.6171 144.22C30.1571 143.46 29.5271 142.87 28.7271 142.45C27.9471 142.03 27.0471 141.82 26.0271 141.82H21.5871V151.57ZM44.932 163.15C43.312 163.15 41.872 162.8 40.612 162.1C39.372 161.38 38.392 160.39 37.672 159.13C36.972 157.87 36.622 156.43 36.622 154.81C36.622 153.17 36.952 151.73 37.612 150.49C38.292 149.23 39.222 148.24 40.402 147.52C41.582 146.8 42.942 146.44 44.482 146.44C46.002 146.44 47.322 146.79 48.442 147.49C49.582 148.17 50.462 149.12 51.082 150.34C51.702 151.56 52.012 152.95 52.012 154.51C52.012 154.83 51.912 155.09 51.712 155.29C51.512 155.47 51.252 155.56 50.932 155.56H38.182V153.64H51.172L49.882 154.57C49.902 153.41 49.692 152.37 49.252 151.45C48.812 150.53 48.182 149.81 47.362 149.29C46.562 148.77 45.602 148.51 44.482 148.51C43.342 148.51 42.342 148.78 41.482 149.32C40.622 149.86 39.952 150.61 39.472 151.57C39.012 152.51 38.782 153.59 38.782 154.81C38.782 156.03 39.042 157.11 39.562 158.05C40.102 158.99 40.832 159.73 41.752 160.27C42.672 160.81 43.732 161.08 44.932 161.08C45.652 161.08 46.372 160.96 47.092 160.72C47.832 160.46 48.422 160.14 48.862 159.76C49.082 159.58 49.332 159.49 49.612 159.49C49.892 159.47 50.132 159.54 50.332 159.7C50.592 159.94 50.722 160.2 50.722 160.48C50.742 160.76 50.632 161 50.392 161.2C49.732 161.76 48.892 162.23 47.872 162.61C46.852 162.97 45.872 163.15 44.932 163.15ZM69.9897 163C69.6497 163 69.3697 162.89 69.1497 162.67C68.9297 162.45 68.8197 162.18 68.8197 161.86V154.06C68.8197 152.82 68.5797 151.8 68.0997 151C67.6397 150.2 66.9997 149.6 66.1797 149.2C65.3797 148.8 64.4697 148.6 63.4497 148.6C62.4697 148.6 61.5797 148.79 60.7797 149.17C59.9997 149.55 59.3797 150.07 58.9197 150.73C58.4597 151.39 58.2297 152.14 58.2297 152.98H56.5797C56.6197 151.72 56.9597 150.6 57.5997 149.62C58.2397 148.62 59.0897 147.84 60.1497 147.28C61.2097 146.7 62.3897 146.41 63.6897 146.41C65.1097 146.41 66.3797 146.71 67.4997 147.31C68.6197 147.89 69.4997 148.75 70.1397 149.89C70.7997 151.03 71.1297 152.42 71.1297 154.06V161.86C71.1297 162.18 71.0197 162.45 70.7997 162.67C70.5797 162.89 70.3097 163 69.9897 163ZM57.0897 163C56.7297 163 56.4397 162.9 56.2197 162.7C56.0197 162.48 55.9197 162.2 55.9197 161.86V147.76C55.9197 147.4 56.0197 147.12 56.2197 146.92C56.4397 146.7 56.7297 146.59 57.0897 146.59C57.4297 146.59 57.6997 146.7 57.8997 146.92C58.1197 147.12 58.2297 147.4 58.2297 147.76V161.86C58.2297 162.2 58.1197 162.48 57.8997 162.7C57.6997 162.9 57.4297 163 57.0897 163ZM83.3625 163.18C81.9425 163.18 80.6725 162.89 79.5525 162.31C78.4325 161.71 77.5425 160.84 76.8825 159.7C76.2425 158.56 75.9225 157.17 75.9225 155.53V147.73C75.9225 147.41 76.0325 147.14 76.2525 146.92C76.4725 146.7 76.7425 146.59 77.0625 146.59C77.4025 146.59 77.6825 146.7 77.9025 146.92C78.1225 147.14 78.2325 147.41 78.2325 147.73V155.53C78.2325 156.77 78.4625 157.79 78.9225 158.59C79.4025 159.39 80.0425 159.99 80.8425 160.39C81.6625 160.79 82.5825 160.99 83.6025 160.99C84.5825 160.99 85.4625 160.8 86.2425 160.42C87.0425 160.04 87.6725 159.52 88.1325 158.86C88.5925 158.2 88.8225 157.45 88.8225 156.61H90.4725C90.4125 157.87 90.0625 159 89.4225 160C88.8025 160.98 87.9625 161.76 86.9025 162.34C85.8425 162.9 84.6625 163.18 83.3625 163.18ZM89.9625 163C89.6225 163 89.3425 162.9 89.1225 162.7C88.9225 162.48 88.8225 162.19 88.8225 161.83V147.73C88.8225 147.39 88.9225 147.12 89.1225 146.92C89.3425 146.7 89.6225 146.59 89.9625 146.59C90.3025 146.59 90.5825 146.7 90.8025 146.92C91.0225 147.12 91.1325 147.39 91.1325 147.73V161.83C91.1325 162.19 91.0225 162.48 90.8025 162.7C90.5825 162.9 90.3025 163 89.9625 163ZM116.144 163.3C114.524 163.3 113.004 162.99 111.584 162.37C110.184 161.75 108.944 160.89 107.864 159.79C106.804 158.67 105.974 157.39 105.374 155.95C104.774 154.49 104.474 152.93 104.474 151.27C104.474 149.63 104.764 148.09 105.344 146.65C105.944 145.19 106.774 143.91 107.834 142.81C108.914 141.71 110.154 140.85 111.554 140.23C112.974 139.59 114.504 139.27 116.144 139.27C117.584 139.27 118.894 139.48 120.074 139.9C121.254 140.32 122.394 140.99 123.494 141.91C123.674 142.05 123.774 142.22 123.794 142.42C123.834 142.6 123.814 142.78 123.734 142.96C123.654 143.12 123.534 143.24 123.374 143.32C123.334 143.48 123.234 143.6 123.074 143.68C122.914 143.76 122.724 143.79 122.504 143.77C122.304 143.75 122.104 143.66 121.904 143.5C121.124 142.82 120.274 142.32 119.354 142C118.434 141.66 117.364 141.49 116.144 141.49C114.844 141.49 113.624 141.75 112.484 142.27C111.364 142.79 110.374 143.5 109.514 144.4C108.654 145.3 107.974 146.34 107.474 147.52C106.994 148.7 106.754 149.95 106.754 151.27C106.754 152.63 106.994 153.9 107.474 155.08C107.974 156.26 108.654 157.3 109.514 158.2C110.374 159.1 111.364 159.81 112.484 160.33C113.624 160.83 114.844 161.08 116.144 161.08C117.244 161.08 118.284 160.9 119.264 160.54C120.244 160.18 121.174 159.66 122.054 158.98C122.294 158.78 122.544 158.7 122.804 158.74C123.084 158.78 123.324 158.9 123.524 159.1C123.724 159.3 123.824 159.56 123.824 159.88C123.824 160.04 123.804 160.19 123.764 160.33C123.724 160.45 123.634 160.58 123.494 160.72C122.474 161.66 121.334 162.33 120.074 162.73C118.814 163.11 117.504 163.3 116.144 163.3ZM123.824 159.88L121.544 159.4V153.37H116.864C116.524 153.37 116.244 153.27 116.024 153.07C115.804 152.87 115.694 152.62 115.694 152.32C115.694 152.02 115.804 151.78 116.024 151.6C116.244 151.4 116.524 151.3 116.864 151.3H122.654C122.994 151.3 123.274 151.41 123.494 151.63C123.714 151.83 123.824 152.1 123.824 152.44V159.88ZM135.482 163.18C134.062 163.18 132.792 162.89 131.672 162.31C130.552 161.71 129.662 160.84 129.002 159.7C128.362 158.56 128.042 157.17 128.042 155.53V147.73C128.042 147.41 128.152 147.14 128.372 146.92C128.592 146.7 128.862 146.59 129.182 146.59C129.522 146.59 129.802 146.7 130.022 146.92C130.242 147.14 130.352 147.41 130.352 147.73V155.53C130.352 156.77 130.582 157.79 131.042 158.59C131.522 159.39 132.162 159.99 132.962 160.39C133.782 160.79 134.702 160.99 135.722 160.99C136.702 160.99 137.582 160.8 138.362 160.42C139.162 160.04 139.792 159.52 140.252 158.86C140.712 158.2 140.942 157.45 140.942 156.61H142.592C142.532 157.87 142.182 159 141.542 160C140.922 160.98 140.082 161.76 139.022 162.34C137.962 162.9 136.782 163.18 135.482 163.18ZM142.082 163C141.742 163 141.462 162.9 141.242 162.7C141.042 162.48 140.942 162.19 140.942 161.83V147.73C140.942 147.39 141.042 147.12 141.242 146.92C141.462 146.7 141.742 146.59 142.082 146.59C142.422 146.59 142.702 146.7 142.922 146.92C143.142 147.12 143.252 147.39 143.252 147.73V161.83C143.252 162.19 143.142 162.48 142.922 162.7C142.702 162.9 142.422 163 142.082 163ZM149.814 170.02C149.454 170.02 149.164 169.91 148.944 169.69C148.744 169.49 148.644 169.21 148.644 168.85V154.69C148.664 153.13 149.034 151.73 149.754 150.49C150.494 149.23 151.484 148.24 152.724 147.52C153.984 146.8 155.394 146.44 156.954 146.44C158.554 146.44 159.984 146.81 161.244 147.55C162.504 148.27 163.494 149.26 164.214 150.52C164.954 151.78 165.324 153.21 165.324 154.81C165.324 156.39 164.964 157.81 164.244 159.07C163.544 160.33 162.584 161.33 161.364 162.07C160.144 162.79 158.764 163.15 157.224 163.15C155.884 163.15 154.664 162.87 153.564 162.31C152.484 161.73 151.614 160.97 150.954 160.03V168.85C150.954 169.21 150.844 169.49 150.624 169.69C150.424 169.91 150.154 170.02 149.814 170.02ZM156.954 161.05C158.114 161.05 159.154 160.78 160.074 160.24C160.994 159.7 161.714 158.96 162.234 158.02C162.774 157.06 163.044 155.99 163.044 154.81C163.044 153.61 162.774 152.54 162.234 151.6C161.714 150.66 160.994 149.92 160.074 149.38C159.154 148.82 158.114 148.54 156.954 148.54C155.814 148.54 154.784 148.82 153.864 149.38C152.944 149.92 152.224 150.66 151.704 151.6C151.184 152.54 150.924 153.61 150.924 154.81C150.924 155.99 151.184 157.06 151.704 158.02C152.224 158.96 152.944 159.7 153.864 160.24C154.784 160.78 155.814 161.05 156.954 161.05ZM176.275 163C175.215 163 174.265 162.75 173.425 162.25C172.605 161.75 171.955 161.07 171.475 160.21C170.995 159.33 170.755 158.33 170.755 157.21V142.54C170.755 142.2 170.855 141.92 171.055 141.7C171.275 141.48 171.555 141.37 171.895 141.37C172.235 141.37 172.515 141.48 172.735 141.7C172.955 141.92 173.065 142.2 173.065 142.54V157.21C173.065 158.23 173.365 159.07 173.965 159.73C174.565 160.37 175.335 160.69 176.275 160.69H177.085C177.405 160.69 177.665 160.8 177.865 161.02C178.065 161.24 178.165 161.52 178.165 161.86C178.165 162.2 178.045 162.48 177.805 162.7C177.565 162.9 177.265 163 176.905 163H176.275ZM168.805 149.2C168.505 149.2 168.255 149.11 168.055 148.93C167.855 148.73 167.755 148.49 167.755 148.21C167.755 147.91 167.855 147.67 168.055 147.49C168.255 147.29 168.505 147.19 168.805 147.19H176.455C176.755 147.19 177.005 147.29 177.205 147.49C177.405 147.67 177.505 147.91 177.505 148.21C177.505 148.49 177.405 148.73 177.205 148.93C177.005 149.11 176.755 149.2 176.455 149.2H168.805ZM189.156 163.15C187.616 163.15 186.236 162.79 185.016 162.07C183.796 161.33 182.826 160.33 182.106 159.07C181.406 157.81 181.056 156.39 181.056 154.81C181.056 153.21 181.416 151.78 182.136 150.52C182.876 149.26 183.876 148.27 185.136 147.55C186.396 146.81 187.816 146.44 189.396 146.44C190.976 146.44 192.386 146.81 193.626 147.55C194.886 148.27 195.876 149.26 196.596 150.52C197.336 151.78 197.716 153.21 197.736 154.81L196.806 155.53C196.806 156.97 196.466 158.27 195.786 159.43C195.126 160.57 194.216 161.48 193.056 162.16C191.916 162.82 190.616 163.15 189.156 163.15ZM189.396 161.05C190.556 161.05 191.586 160.78 192.486 160.24C193.406 159.7 194.126 158.96 194.646 158.02C195.186 157.06 195.456 155.99 195.456 154.81C195.456 153.61 195.186 152.54 194.646 151.6C194.126 150.66 193.406 149.92 192.486 149.38C191.586 148.82 190.556 148.54 189.396 148.54C188.256 148.54 187.226 148.82 186.306 149.38C185.386 149.92 184.656 150.66 184.116 151.6C183.576 152.54 183.306 153.61 183.306 154.81C183.306 155.99 183.576 157.06 184.116 158.02C184.656 158.96 185.386 159.7 186.306 160.24C187.226 160.78 188.256 161.05 189.396 161.05ZM196.566 163C196.226 163 195.946 162.9 195.726 162.7C195.506 162.48 195.396 162.2 195.396 161.86V156.73L195.966 154.36L197.736 154.81V161.86C197.736 162.2 197.626 162.48 197.406 162.7C197.186 162.9 196.906 163 196.566 163ZM210.027 163C209.567 163 209.237 162.81 209.037 162.43C208.837 162.05 208.817 161.68 208.977 161.32L217.797 140.38C218.017 139.84 218.397 139.57 218.937 139.57C219.457 139.57 219.827 139.84 220.047 140.38L228.897 161.35C229.077 161.73 229.047 162.1 228.807 162.46C228.587 162.82 228.267 163 227.847 163C227.607 163 227.387 162.94 227.187 162.82C227.007 162.7 226.857 162.52 226.737 162.28L218.487 142.27H219.417L211.107 162.28C211.007 162.52 210.857 162.7 210.657 162.82C210.477 162.94 210.267 163 210.027 163ZM212.007 157.42L212.907 155.41H225.087L225.987 157.42H212.007ZM238.845 163.15C237.265 163.15 235.855 162.79 234.615 162.07C233.395 161.33 232.425 160.33 231.705 159.07C231.005 157.81 230.655 156.39 230.655 154.81C230.655 153.21 230.995 151.78 231.675 150.52C232.355 149.26 233.285 148.27 234.465 147.55C235.645 146.81 237.005 146.44 238.545 146.44C239.765 146.44 240.885 146.68 241.905 147.16C242.945 147.64 243.855 148.36 244.635 149.32C244.855 149.56 244.935 149.82 244.875 150.1C244.815 150.36 244.645 150.59 244.365 150.79C244.145 150.95 243.895 151.01 243.615 150.97C243.355 150.91 243.125 150.76 242.925 150.52C241.765 149.2 240.305 148.54 238.545 148.54C237.425 148.54 236.435 148.81 235.575 149.35C234.735 149.89 234.075 150.63 233.595 151.57C233.135 152.51 232.905 153.59 232.905 154.81C232.905 156.01 233.155 157.08 233.655 158.02C234.155 158.96 234.855 159.7 235.755 160.24C236.655 160.78 237.685 161.05 238.845 161.05C239.625 161.05 240.335 160.95 240.975 160.75C241.635 160.53 242.215 160.2 242.715 159.76C242.955 159.56 243.205 159.45 243.465 159.43C243.725 159.41 243.965 159.49 244.185 159.67C244.425 159.89 244.555 160.14 244.575 160.42C244.615 160.7 244.525 160.94 244.305 161.14C242.845 162.48 241.025 163.15 238.845 163.15ZM250.537 156.31C250.177 156.31 249.887 156.2 249.667 155.98C249.467 155.76 249.367 155.48 249.367 155.14V140.74C249.367 140.38 249.467 140.1 249.667 139.9C249.887 139.68 250.177 139.57 250.537 139.57C250.877 139.57 251.147 139.68 251.347 139.9C251.567 140.1 251.677 140.38 251.677 140.74V155.14C251.677 155.48 251.567 155.76 251.347 155.98C251.147 156.2 250.877 156.31 250.537 156.31ZM263.437 163C263.097 163 262.817 162.89 262.597 162.67C262.377 162.45 262.267 162.18 262.267 161.86V154.06C262.267 152.82 262.027 151.8 261.547 151C261.087 150.2 260.447 149.6 259.627 149.2C258.827 148.8 257.917 148.6 256.897 148.6C255.917 148.6 255.027 148.79 254.227 149.17C253.447 149.55 252.827 150.07 252.367 150.73C251.907 151.39 251.677 152.14 251.677 152.98H250.027C250.067 151.72 250.407 150.6 251.047 149.62C251.687 148.62 252.537 147.84 253.597 147.28C254.657 146.7 255.837 146.41 257.137 146.41C258.557 146.41 259.827 146.71 260.947 147.31C262.067 147.89 262.947 148.75 263.587 149.89C264.247 151.03 264.577 152.42 264.577 154.06V161.86C264.577 162.18 264.467 162.45 264.247 162.67C264.027 162.89 263.757 163 263.437 163ZM250.537 163C250.177 163 249.887 162.9 249.667 162.7C249.467 162.48 249.367 162.2 249.367 161.86V147.76C249.367 147.4 249.467 147.12 249.667 146.92C249.887 146.7 250.177 146.59 250.537 146.59C250.877 146.59 251.147 146.7 251.347 146.92C251.567 147.12 251.677 147.4 251.677 147.76V161.86C251.677 162.2 251.567 162.48 251.347 162.7C251.147 162.9 250.877 163 250.537 163ZM271.32 163C270.96 163 270.67 162.9 270.45 162.7C270.25 162.48 270.15 162.19 270.15 161.83V147.76C270.15 147.4 270.25 147.12 270.45 146.92C270.67 146.7 270.96 146.59 271.32 146.59C271.66 146.59 271.93 146.7 272.13 146.92C272.35 147.12 272.46 147.4 272.46 147.76V161.83C272.46 162.19 272.35 162.48 272.13 162.7C271.93 162.9 271.66 163 271.32 163ZM271.29 143.47C270.85 143.47 270.47 143.31 270.15 142.99C269.83 142.67 269.67 142.28 269.67 141.82C269.67 141.32 269.83 140.93 270.15 140.65C270.49 140.35 270.88 140.2 271.32 140.2C271.74 140.2 272.11 140.35 272.43 140.65C272.77 140.93 272.94 141.32 272.94 141.82C272.94 142.28 272.78 142.67 272.46 142.99C272.14 143.31 271.75 143.47 271.29 143.47ZM285.782 163.15C284.162 163.15 282.722 162.8 281.462 162.1C280.222 161.38 279.242 160.39 278.522 159.13C277.822 157.87 277.472 156.43 277.472 154.81C277.472 153.17 277.802 151.73 278.462 150.49C279.142 149.23 280.072 148.24 281.252 147.52C282.432 146.8 283.792 146.44 285.332 146.44C286.852 146.44 288.172 146.79 289.292 147.49C290.432 148.17 291.312 149.12 291.932 150.34C292.552 151.56 292.862 152.95 292.862 154.51C292.862 154.83 292.762 155.09 292.562 155.29C292.362 155.47 292.102 155.56 291.782 155.56H279.032V153.64H292.022L290.732 154.57C290.752 153.41 290.542 152.37 290.102 151.45C289.662 150.53 289.032 149.81 288.212 149.29C287.412 148.77 286.452 148.51 285.332 148.51C284.192 148.51 283.192 148.78 282.332 149.32C281.472 149.86 280.802 150.61 280.322 151.57C279.862 152.51 279.632 153.59 279.632 154.81C279.632 156.03 279.892 157.11 280.412 158.05C280.952 158.99 281.682 159.73 282.602 160.27C283.522 160.81 284.582 161.08 285.782 161.08C286.502 161.08 287.222 160.96 287.942 160.72C288.682 160.46 289.272 160.14 289.712 159.76C289.932 159.58 290.182 159.49 290.462 159.49C290.742 159.47 290.982 159.54 291.182 159.7C291.442 159.94 291.572 160.2 291.572 160.48C291.592 160.76 291.482 161 291.242 161.2C290.582 161.76 289.742 162.23 288.722 162.61C287.702 162.97 286.722 163.15 285.782 163.15ZM301.793 163C301.313 163 300.953 162.74 300.713 162.22L294.053 148.09C293.933 147.83 293.923 147.57 294.023 147.31C294.123 147.05 294.323 146.85 294.623 146.71C294.903 146.57 295.173 146.55 295.433 146.65C295.693 146.75 295.893 146.93 296.033 147.19L302.423 161.02H301.193L307.493 147.19C307.613 146.91 307.813 146.73 308.093 146.65C308.393 146.55 308.683 146.56 308.963 146.68C309.243 146.82 309.433 147.03 309.533 147.31C309.633 147.57 309.623 147.82 309.503 148.06L302.933 162.22C302.693 162.74 302.313 163 301.793 163ZM319.619 163.15C317.999 163.15 316.559 162.8 315.299 162.1C314.059 161.38 313.079 160.39 312.359 159.13C311.659 157.87 311.309 156.43 311.309 154.81C311.309 153.17 311.639 151.73 312.299 150.49C312.979 149.23 313.909 148.24 315.089 147.52C316.269 146.8 317.629 146.44 319.169 146.44C320.689 146.44 322.009 146.79 323.129 147.49C324.269 148.17 325.149 149.12 325.769 150.34C326.389 151.56 326.699 152.95 326.699 154.51C326.699 154.83 326.599 155.09 326.399 155.29C326.199 155.47 325.939 155.56 325.619 155.56H312.869V153.64H325.859L324.569 154.57C324.589 153.41 324.379 152.37 323.939 151.45C323.499 150.53 322.869 149.81 322.049 149.29C321.249 148.77 320.289 148.51 319.169 148.51C318.029 148.51 317.029 148.78 316.169 149.32C315.309 149.86 314.639 150.61 314.159 151.57C313.699 152.51 313.469 153.59 313.469 154.81C313.469 156.03 313.729 157.11 314.249 158.05C314.789 158.99 315.519 159.73 316.439 160.27C317.359 160.81 318.419 161.08 319.619 161.08C320.339 161.08 321.059 160.96 321.779 160.72C322.519 160.46 323.109 160.14 323.549 159.76C323.769 159.58 324.019 159.49 324.299 159.49C324.579 159.47 324.819 159.54 325.019 159.7C325.279 159.94 325.409 160.2 325.409 160.48C325.429 160.76 325.319 161 325.079 161.2C324.419 161.76 323.579 162.23 322.559 162.61C321.539 162.97 320.559 163.15 319.619 163.15ZM331.567 152.89C331.627 151.65 331.947 150.54 332.527 149.56C333.127 148.58 333.897 147.81 334.837 147.25C335.797 146.69 336.857 146.41 338.017 146.41C338.937 146.41 339.647 146.54 340.147 146.8C340.647 147.06 340.837 147.44 340.717 147.94C340.637 148.24 340.497 148.44 340.297 148.54C340.117 148.64 339.887 148.68 339.607 148.66C339.347 148.64 339.047 148.62 338.707 148.6C337.587 148.5 336.587 148.62 335.707 148.96C334.847 149.28 334.157 149.78 333.637 150.46C333.137 151.14 332.887 151.95 332.887 152.89H331.567ZM331.747 163C331.387 163 331.107 162.9 330.907 162.7C330.707 162.5 330.607 162.22 330.607 161.86V147.73C330.607 147.37 330.707 147.09 330.907 146.89C331.107 146.69 331.387 146.59 331.747 146.59C332.107 146.59 332.387 146.69 332.587 146.89C332.787 147.09 332.887 147.37 332.887 147.73V161.86C332.887 162.22 332.787 162.5 332.587 162.7C332.387 162.9 332.107 163 331.747 163ZM350.077 163.15C348.897 163.15 347.727 162.95 346.567 162.55C345.407 162.15 344.467 161.55 343.747 160.75C343.527 160.51 343.437 160.24 343.477 159.94C343.517 159.64 343.667 159.38 343.927 159.16C344.207 158.96 344.497 158.88 344.797 158.92C345.097 158.96 345.347 159.09 345.547 159.31C346.027 159.87 346.657 160.3 347.437 160.6C348.237 160.9 349.117 161.05 350.077 161.05C351.557 161.05 352.627 160.8 353.287 160.3C353.947 159.78 354.287 159.16 354.307 158.44C354.307 157.72 353.967 157.13 353.287 156.67C352.607 156.19 351.487 155.82 349.927 155.56C347.907 155.24 346.427 154.68 345.487 153.88C344.547 153.08 344.077 152.13 344.077 151.03C344.077 150.01 344.347 149.16 344.887 148.48C345.427 147.8 346.147 147.29 347.047 146.95C347.947 146.61 348.937 146.44 350.017 146.44C351.357 146.44 352.507 146.67 353.467 147.13C354.447 147.59 355.237 148.21 355.837 148.99C356.037 149.25 356.117 149.52 356.077 149.8C356.037 150.08 355.877 150.31 355.597 150.49C355.357 150.63 355.077 150.68 354.757 150.64C354.457 150.58 354.197 150.43 353.977 150.19C353.477 149.61 352.897 149.19 352.237 148.93C351.577 148.65 350.817 148.51 349.957 148.51C348.857 148.51 347.977 148.74 347.317 149.2C346.657 149.64 346.327 150.2 346.327 150.88C346.327 151.34 346.447 151.74 346.687 152.08C346.947 152.42 347.377 152.72 347.977 152.98C348.597 153.24 349.457 153.46 350.557 153.64C352.057 153.88 353.237 154.24 354.097 154.72C354.977 155.18 355.597 155.73 355.957 156.37C356.337 156.99 356.527 157.67 356.527 158.41C356.527 159.35 356.247 160.18 355.687 160.9C355.147 161.6 354.387 162.15 353.407 162.55C352.447 162.95 351.337 163.15 350.077 163.15ZM368.318 163C367.858 163 367.528 162.81 367.328 162.43C367.128 162.05 367.108 161.68 367.268 161.32L376.088 140.38C376.308 139.84 376.688 139.57 377.228 139.57C377.748 139.57 378.118 139.84 378.338 140.38L387.188 161.35C387.368 161.73 387.338 162.1 387.098 162.46C386.878 162.82 386.558 163 386.138 163C385.898 163 385.678 162.94 385.478 162.82C385.298 162.7 385.148 162.52 385.028 162.28L376.778 142.27H377.708L369.398 162.28C369.298 162.52 369.148 162.7 368.948 162.82C368.768 162.94 368.558 163 368.318 163ZM370.298 157.42L371.198 155.41H383.378L384.278 157.42H370.298ZM397.136 163.15C395.556 163.15 394.146 162.79 392.906 162.07C391.686 161.33 390.716 160.33 389.996 159.07C389.296 157.81 388.946 156.39 388.946 154.81C388.946 153.21 389.286 151.78 389.966 150.52C390.646 149.26 391.576 148.27 392.756 147.55C393.936 146.81 395.296 146.44 396.836 146.44C398.056 146.44 399.176 146.68 400.196 147.16C401.236 147.64 402.146 148.36 402.926 149.32C403.146 149.56 403.226 149.82 403.166 150.1C403.106 150.36 402.936 150.59 402.656 150.79C402.436 150.95 402.186 151.01 401.906 150.97C401.646 150.91 401.416 150.76 401.216 150.52C400.056 149.2 398.596 148.54 396.836 148.54C395.716 148.54 394.726 148.81 393.866 149.35C393.026 149.89 392.366 150.63 391.886 151.57C391.426 152.51 391.196 153.59 391.196 154.81C391.196 156.01 391.446 157.08 391.946 158.02C392.446 158.96 393.146 159.7 394.046 160.24C394.946 160.78 395.976 161.05 397.136 161.05C397.916 161.05 398.626 160.95 399.266 160.75C399.926 160.53 400.506 160.2 401.006 159.76C401.246 159.56 401.496 159.45 401.756 159.43C402.016 159.41 402.256 159.49 402.476 159.67C402.716 159.89 402.846 160.14 402.866 160.42C402.906 160.7 402.816 160.94 402.596 161.14C401.136 162.48 399.316 163.15 397.136 163.15ZM414.888 163.15C413.348 163.15 411.968 162.79 410.748 162.07C409.528 161.33 408.558 160.33 407.838 159.07C407.138 157.81 406.788 156.39 406.788 154.81C406.788 153.21 407.148 151.78 407.868 150.52C408.608 149.26 409.608 148.27 410.868 147.55C412.128 146.81 413.548 146.44 415.128 146.44C416.708 146.44 418.118 146.81 419.358 147.55C420.618 148.27 421.608 149.26 422.328 150.52C423.068 151.78 423.448 153.21 423.468 154.81L422.538 155.53C422.538 156.97 422.198 158.27 421.518 159.43C420.858 160.57 419.948 161.48 418.788 162.16C417.648 162.82 416.348 163.15 414.888 163.15ZM415.128 161.05C416.288 161.05 417.318 160.78 418.218 160.24C419.138 159.7 419.858 158.96 420.378 158.02C420.918 157.06 421.188 155.99 421.188 154.81C421.188 153.61 420.918 152.54 420.378 151.6C419.858 150.66 419.138 149.92 418.218 149.38C417.318 148.82 416.288 148.54 415.128 148.54C413.988 148.54 412.958 148.82 412.038 149.38C411.118 149.92 410.388 150.66 409.848 151.6C409.308 152.54 409.038 153.61 409.038 154.81C409.038 155.99 409.308 157.06 409.848 158.02C410.388 158.96 411.118 159.7 412.038 160.24C412.958 160.78 413.988 161.05 415.128 161.05ZM422.298 163C421.958 163 421.678 162.9 421.458 162.7C421.238 162.48 421.128 162.2 421.128 161.86V156.73L421.698 154.36L423.468 154.81V161.86C423.468 162.2 423.358 162.48 423.138 162.7C422.918 162.9 422.638 163 422.298 163ZM435.431 163.15C433.851 163.15 432.431 162.79 431.171 162.07C429.911 161.33 428.911 160.33 428.171 159.07C427.451 157.81 427.091 156.38 427.091 154.78C427.091 153.2 427.441 151.78 428.141 150.52C428.861 149.26 429.831 148.27 431.051 147.55C432.271 146.81 433.651 146.44 435.191 146.44C436.531 146.44 437.741 146.73 438.821 147.31C439.901 147.87 440.771 148.62 441.431 149.56V140.74C441.431 140.38 441.541 140.1 441.761 139.9C441.981 139.68 442.261 139.57 442.601 139.57C442.941 139.57 443.221 139.68 443.441 139.9C443.661 140.1 443.771 140.38 443.771 140.74V154.9C443.731 156.46 443.341 157.87 442.601 159.13C441.881 160.37 440.891 161.35 439.631 162.07C438.391 162.79 436.991 163.15 435.431 163.15ZM435.431 161.05C436.591 161.05 437.621 160.78 438.521 160.24C439.441 159.68 440.161 158.93 440.681 157.99C441.221 157.05 441.491 155.98 441.491 154.78C441.491 153.6 441.221 152.54 440.681 151.6C440.161 150.64 439.441 149.89 438.521 149.35C437.621 148.81 436.591 148.54 435.431 148.54C434.291 148.54 433.261 148.81 432.341 149.35C431.421 149.89 430.691 150.64 430.151 151.6C429.611 152.54 429.341 153.6 429.341 154.78C429.341 155.98 429.611 157.05 430.151 157.99C430.691 158.93 431.421 159.68 432.341 160.24C433.261 160.78 434.291 161.05 435.431 161.05ZM456.612 163.15C454.992 163.15 453.552 162.8 452.292 162.1C451.052 161.38 450.072 160.39 449.352 159.13C448.652 157.87 448.302 156.43 448.302 154.81C448.302 153.17 448.632 151.73 449.292 150.49C449.972 149.23 450.902 148.24 452.082 147.52C453.262 146.8 454.622 146.44 456.162 146.44C457.682 146.44 459.002 146.79 460.122 147.49C461.262 148.17 462.142 149.12 462.762 150.34C463.382 151.56 463.692 152.95 463.692 154.51C463.692 154.83 463.592 155.09 463.392 155.29C463.192 155.47 462.932 155.56 462.612 155.56H449.862V153.64H462.852L461.562 154.57C461.582 153.41 461.372 152.37 460.932 151.45C460.492 150.53 459.862 149.81 459.042 149.29C458.242 148.77 457.282 148.51 456.162 148.51C455.022 148.51 454.022 148.78 453.162 149.32C452.302 149.86 451.632 150.61 451.152 151.57C450.692 152.51 450.462 153.59 450.462 154.81C450.462 156.03 450.722 157.11 451.242 158.05C451.782 158.99 452.512 159.73 453.432 160.27C454.352 160.81 455.412 161.08 456.612 161.08C457.332 161.08 458.052 160.96 458.772 160.72C459.512 160.46 460.102 160.14 460.542 159.76C460.762 159.58 461.012 159.49 461.292 159.49C461.572 159.47 461.812 159.54 462.012 159.7C462.272 159.94 462.402 160.2 462.402 160.48C462.422 160.76 462.312 161 462.072 161.2C461.412 161.76 460.572 162.23 459.552 162.61C458.532 162.97 457.552 163.15 456.612 163.15ZM489.769 163C489.429 163 489.149 162.9 488.929 162.7C488.709 162.48 488.599 162.2 488.599 161.86V153.22C488.599 151.8 488.229 150.68 487.489 149.86C486.749 149.02 485.799 148.6 484.639 148.6C483.399 148.6 482.379 149.02 481.579 149.86C480.799 150.68 480.419 151.78 480.439 153.16H478.369C478.389 151.82 478.679 150.64 479.239 149.62C479.799 148.6 480.569 147.81 481.549 147.25C482.529 146.69 483.639 146.41 484.879 146.41C486.059 146.41 487.099 146.69 487.999 147.25C488.919 147.81 489.629 148.6 490.129 149.62C490.649 150.64 490.909 151.84 490.909 153.22V161.86C490.909 162.2 490.799 162.48 490.579 162.7C490.379 162.9 490.109 163 489.769 163ZM468.769 163C468.409 163 468.119 162.9 467.899 162.7C467.699 162.48 467.599 162.2 467.599 161.86V147.76C467.599 147.42 467.699 147.14 467.899 146.92C468.119 146.7 468.409 146.59 468.769 146.59C469.109 146.59 469.379 146.7 469.579 146.92C469.799 147.14 469.909 147.42 469.909 147.76V161.86C469.909 162.2 469.799 162.48 469.579 162.7C469.379 162.9 469.109 163 468.769 163ZM479.299 163C478.959 163 478.679 162.9 478.459 162.7C478.239 162.48 478.129 162.2 478.129 161.86V153.22C478.129 151.8 477.759 150.68 477.019 149.86C476.279 149.02 475.329 148.6 474.169 148.6C472.929 148.6 471.909 149.01 471.109 149.83C470.309 150.63 469.909 151.68 469.909 152.98H468.259C468.299 151.7 468.579 150.57 469.099 149.59C469.639 148.59 470.369 147.81 471.289 147.25C472.209 146.69 473.249 146.41 474.409 146.41C475.589 146.41 476.629 146.69 477.529 147.25C478.449 147.81 479.159 148.6 479.659 149.62C480.179 150.64 480.439 151.84 480.439 153.22V161.86C480.439 162.2 480.329 162.48 480.109 162.7C479.909 162.9 479.639 163 479.299 163ZM498.837 170.14C498.677 170.14 498.497 170.1 498.297 170.02C497.617 169.72 497.427 169.24 497.727 168.58L507.417 147.22C507.717 146.58 508.197 146.4 508.857 146.68C509.537 146.96 509.727 147.43 509.427 148.09L499.707 169.45C499.507 169.91 499.217 170.14 498.837 170.14ZM502.167 162.49C501.867 162.63 501.587 162.66 501.327 162.58C501.067 162.48 500.857 162.28 500.697 161.98L494.007 148.12C493.867 147.82 493.847 147.54 493.947 147.28C494.047 147.02 494.247 146.82 494.547 146.68C494.847 146.54 495.127 146.52 495.387 146.62C495.647 146.7 495.847 146.89 495.987 147.19L502.557 161.05C502.717 161.35 502.767 161.63 502.707 161.89C502.647 162.15 502.467 162.35 502.167 162.49Z" fill="#A8A7A7"/>
<path d="M60 60L120 120H60V60Z" fill="#F5A604"/>
<rect y="60" width="60" height="60" fill="#58D9CD"/>
<path d="M60 0H90C106.569 0 120 13.4315 120 30V30C120 46.5685 106.569 60 90 60H60V0Z" fill="#00A3CE"/>
<rect width="60" height="60" fill="#58D9CD"/>
<rect x="193" y="60" width="60" height="60" fill="#58D9CD"/>
<path d="M133 60V60C133 26.8629 159.863 -1.17422e-06 193 -2.62268e-06V-2.62268e-06L193 60L133 60Z" fill="#FF6665"/>
<path d="M133 60V60C133 93.1371 159.863 120 193 120V120L193 60L133 60Z" fill="#FF6665"/>
<path d="M396 120L456 60H396V120Z" fill="#F5A604"/>
<path d="M516 120L456 60H516V120Z" fill="#F5A604"/>
<path d="M456 0L516 60H456V0Z" fill="#F5A604"/>
<path d="M456 0L396 60H456V0Z" fill="#F5A604"/>
<path d="M263 120L323 60H263V120Z" fill="#F5A604"/>
<path d="M383 120L323 60H383V120Z" fill="#F5A604"/>
<path d="M323 0L383 60H323V0Z" fill="#F5A604"/>
<path d="M323 0L263 60H323V0Z" fill="#F5A604"/>
</svg>
